STARTFONT 2.1
FONT serif10
SIZE 12 75 75
FONTBOUNDINGBOX 8 13 0 -3

STARTPROPERTIES 10
COPYRIGHT "Share and enjoy."
POINT_SIZE 120
WEIGHT 10
RESOLUTION_X 75
RESOLUTION_Y 75
X_HEIGHT 10
QUAD_WIDTH 8
DEFAULT_CHAR 0
FONT_DESCENT 3
FONT_ASCENT 10
ENDPROPERTIES

CHARS 125

STARTCHAR C002
ENCODING 2
SWIDTH 666 0
DWIDTH 8 0
BBX 8 13 0 -3
BITMAP
00
08
08
00
08
08
10
24
24
18
00
00
00
ENDCHAR

STARTCHAR C003
ENCODING 3
SWIDTH 666 0
DWIDTH 8 0
BBX 8 13 0 -3
BITMAP
00
00
00
00
38
44
40
40
44
38
10
30
00
ENDCHAR

STARTCHAR C004
ENCODING 4
SWIDTH 666 0
DWIDTH 8 0
BBX 8 13 0 -3
BITMAP
00
12
12
00
00
00
00
00
00
00
00
00
00
ENDCHAR

STARTCHAR C005
ENCODING 5
SWIDTH 666 0
DWIDTH 8 0
BBX 8 13 0 -3
BITMAP
00
04
02
00
00
00
00
00
00
00
00
00
00
ENDCHAR

STARTCHAR C006
ENCODING 6
SWIDTH 666 0
DWIDTH 8 0
BBX 8 13 0 -3
BITMAP
00
00
3B
44
FE
44
44
44
44
FE
00
00
00
ENDCHAR

STARTCHAR C007
ENCODING 7
SWIDTH 666 0
DWIDTH 8 0
BBX 8 13 0 -3
BITMAP
00
00
08
10
18
00
00
00
00
00
00
00
00
ENDCHAR

STARTCHAR C010
ENCODING 8
SWIDTH 666 0
DWIDTH 8 0
BBX 8 13 0 -3
BITMAP
00
00
10
10
00
10
10
10
10
10
00
00
00
ENDCHAR

STARTCHAR C011
ENCODING 9
SWIDTH 666 0
DWIDTH 8 0
BBX 8 13 0 -3
BITMAP
00
00
00
00
00
00
00
00
00
00
00
00
00
ENDCHAR

STARTCHAR C012
ENCODING 10
SWIDTH 666 0
DWIDTH 8 0
BBX 8 13 0 -3
BITMAP
00
00
00
00
00
00
00
00
00
00
00
00
00
ENDCHAR

STARTCHAR C013
ENCODING 11
SWIDTH 666 0
DWIDTH 8 0
BBX 8 13 0 -3
BITMAP
00
02
04
00
00
00
00
00
00
00
00
00
00
ENDCHAR

STARTCHAR C014
ENCODING 12
SWIDTH 666 0
DWIDTH 8 0
BBX 8 13 0 -3
BITMAP
00
00
00
00
00
00
00
00
00
00
00
00
00
ENDCHAR

STARTCHAR C015
ENCODING 13
SWIDTH 666 0
DWIDTH 8 0
BBX 8 13 0 -3
BITMAP
00
00
00
00
00
00
00
00
00
00
00
00
00
ENDCHAR

STARTCHAR C016
ENCODING 14
SWIDTH 666 0
DWIDTH 8 0
BBX 8 13 0 -3
BITMAP
00
00
1E
00
00
00
00
00
00
00
00
00
00
ENDCHAR

STARTCHAR C017
ENCODING 15
SWIDTH 666 0
DWIDTH 8 0
BBX 8 13 0 -3
BITMAP
00
00
00
00
00
00
00
00
00
00
00
00
00
ENDCHAR

STARTCHAR C020
ENCODING 16
SWIDTH 666 0
DWIDTH 8 0
BBX 8 13 0 -3
BITMAP
00
1A
2C
00
00
00
00
00
00
00
00
00
00
ENDCHAR

STARTCHAR C021
ENCODING 17
SWIDTH 666 0
DWIDTH 8 0
BBX 8 13 0 -3
BITMAP
00
00
7E
92
FE
92
92
92
92
FF
00
00
00
ENDCHAR

STARTCHAR C022
ENCODING 18
SWIDTH 666 0
DWIDTH 8 0
BBX 8 13 0 -3
BITMAP
00
00
7E
92
FE
92
92
92
92
FF
00
00
00
ENDCHAR

STARTCHAR C023
ENCODING 19
SWIDTH 666 0
DWIDTH 8 0
BBX 8 13 0 -3
BITMAP
00
00
00
00
00
00
FF
00
00
00
00
00
00
ENDCHAR

STARTCHAR C024
ENCODING 20
SWIDTH 666 0
DWIDTH 8 0
BBX 8 13 0 -3
BITMAP
00
00
1C
22
7C
22
22
22
22
7F
00
00
00
ENDCHAR

STARTCHAR C025
ENCODING 21
SWIDTH 666 0
DWIDTH 8 0
BBX 8 13 0 -3
BITMAP
00
00
3C
44
FC
44
44
44
44
FE
00
00
00
ENDCHAR

STARTCHAR C026
ENCODING 22
SWIDTH 666 0
DWIDTH 8 0
BBX 8 13 0 -3
BITMAP
00
00
00
00
00
00
7E
00
00
00
00
00
00
ENDCHAR

STARTCHAR C027
ENCODING 23
SWIDTH 666 0
DWIDTH 8 0
BBX 8 13 0 -3
BITMAP
00
22
1C
00
00
00
00
00
00
00
00
00
00
ENDCHAR

STARTCHAR C030
ENCODING 24
SWIDTH 666 0
DWIDTH 8 0
BBX 8 13 0 -3
BITMAP
00
00
00
00
00
00
7E
00
00
00
00
00
00
ENDCHAR

STARTCHAR C031
ENCODING 25
SWIDTH 666 0
DWIDTH 8 0
BBX 8 13 0 -3
BITMAP
00
00
00
00
00
00
00
00
00
00
00
00
00
ENDCHAR

STARTCHAR C032
ENCODING 26
SWIDTH 666 0
DWIDTH 8 0
BBX 8 13 0 -3
BITMAP
00
00
00
00
00
00
00
00
00
00
00
00
00
ENDCHAR

STARTCHAR C033
ENCODING 27
SWIDTH 666 0
DWIDTH 8 0
BBX 8 13 0 -3
BITMAP
00
00
00
00
00
00
00
00
00
00
00
00
00
ENDCHAR

STARTCHAR C034
ENCODING 28
SWIDTH 666 0
DWIDTH 8 0
BBX 8 13 0 -3
BITMAP
00
00
00
00
00
00
00
00
00
00
00
00
00
ENDCHAR

STARTCHAR C035
ENCODING 29
SWIDTH 666 0
DWIDTH 8 0
BBX 8 13 0 -3
BITMAP
00
00
00
00
00
00
00
00
00
00
00
04
04
ENDCHAR

STARTCHAR C036
ENCODING 30
SWIDTH 666 0
DWIDTH 8 0
BBX 8 13 0 -3
BITMAP
00
1A
2C
00
00
00
00
00
00
00
00
00
00
ENDCHAR

STARTCHAR C037
ENCODING 31
SWIDTH 666 0
DWIDTH 8 0
BBX 8 13 0 -3
BITMAP
0C
12
12
0C
00
00
00
00
00
00
00
00
00
ENDCHAR

STARTCHAR C040
ENCODING 32
SWIDTH 666 0
DWIDTH 8 0
BBX 8 13 0 -3
BITMAP
00
00
00
00
00
00
00
00
00
00
00
00
00
ENDCHAR

STARTCHAR !
ENCODING 33
SWIDTH 666 0
DWIDTH 8 0
BBX 8 13 0 -3
BITMAP
00
00
08
08
08
08
08
00
08
08
00
00
00
ENDCHAR

STARTCHAR "
ENCODING 34
SWIDTH 666 0
DWIDTH 8 0
BBX 8 13 0 -3
BITMAP
00
00
14
14
14
00
00
00
00
00
00
00
00
ENDCHAR

STARTCHAR #
ENCODING 35
SWIDTH 666 0
DWIDTH 8 0
BBX 8 13 0 -3
BITMAP
00
00
12
12
7F
24
24
FE
48
48
00
00
00
ENDCHAR

STARTCHAR $
ENCODING 36
SWIDTH 666 0
DWIDTH 8 0
BBX 8 13 0 -3
BITMAP
00
08
1E
2A
28
1C
0A
0A
2A
3C
08
00
00
ENDCHAR

STARTCHAR %
ENCODING 37
SWIDTH 666 0
DWIDTH 8 0
BBX 8 13 0 -3
BITMAP
00
00
7C
94
98
68
12
15
15
12
00
00
00
ENDCHAR

STARTCHAR &
ENCODING 38
SWIDTH 666 0
DWIDTH 8 0
BBX 8 13 0 -3
BITMAP
00
00
10
28
28
32
54
8C
89
76
00
00
00
ENDCHAR

STARTCHAR '
ENCODING 39
SWIDTH 666 0
DWIDTH 8 0
BBX 8 13 0 -3
BITMAP
00
00
18
08
10
00
00
00
00
00
00
00
00
ENDCHAR

STARTCHAR (
ENCODING 40
SWIDTH 666 0
DWIDTH 8 0
BBX 8 13 0 -3
BITMAP
00
00
04
08
08
10
10
10
10
10
08
08
04
ENDCHAR

STARTCHAR )
ENCODING 41
SWIDTH 666 0
DWIDTH 8 0
BBX 8 13 0 -3
BITMAP
00
00
10
08
08
04
04
04
04
04
08
08
10
ENDCHAR

STARTCHAR *
ENCODING 42
SWIDTH 666 0
DWIDTH 8 0
BBX 8 13 0 -3
BITMAP
00
08
2A
1C
2A
08
00
00
00
00
00
00
00
ENDCHAR

STARTCHAR +
ENCODING 43
SWIDTH 666 0
DWIDTH 8 0
BBX 8 13 0 -3
BITMAP
00
00
00
00
00
08
08
3E
08
08
00
00
00
ENDCHAR

STARTCHAR ,
ENCODING 44
SWIDTH 666 0
DWIDTH 8 0
BBX 8 13 0 -3
BITMAP
00
00
00
00
00
00
00
00
18
08
08
10
00
ENDCHAR

STARTCHAR -
ENCODING 45
SWIDTH 666 0
DWIDTH 8 0
BBX 8 13 0 -3
BITMAP
00
00
00
00
00
00
3C
00
00
00
00
00
00
ENDCHAR

STARTCHAR .
ENCODING 46
SWIDTH 666 0
DWIDTH 8 0
BBX 8 13 0 -3
BITMAP
00
00
00
00
00
00
00
00
08
08
00
00
00
ENDCHAR

STARTCHAR /
ENCODING 47
SWIDTH 666 0
DWIDTH 8 0
BBX 8 13 0 -3
BITMAP
00
00
04
04
08
08
10
10
20
20
00
00
00
ENDCHAR

STARTCHAR 0
ENCODING 48
SWIDTH 666 0
DWIDTH 8 0
BBX 8 13 0 -3
BITMAP
00
00
18
24
24
24
24
24
24
18
00
00
00
ENDCHAR

STARTCHAR 1
ENCODING 49
SWIDTH 666 0
DWIDTH 8 0
BBX 8 13 0 -3
BITMAP
00
00
08
18
08
08
08
08
08
1C
00
00
00
ENDCHAR

STARTCHAR 2
ENCODING 50
SWIDTH 666 0
DWIDTH 8 0
BBX 8 13 0 -3
BITMAP
00
00
18
24
04
04
08
10
22
3C
00
00
00
ENDCHAR

STARTCHAR 3
ENCODING 51
SWIDTH 666 0
DWIDTH 8 0
BBX 8 13 0 -3
BITMAP
00
00
18
24
04
18
04
04
24
18
00
00
00
ENDCHAR

STARTCHAR 4
ENCODING 52
SWIDTH 666 0
DWIDTH 8 0
BBX 8 13 0 -3
BITMAP
00
00
0C
14
14
24
24
3E
04
04
00
00
00
ENDCHAR

STARTCHAR 5
ENCODING 53
SWIDTH 666 0
DWIDTH 8 0
BBX 8 13 0 -3
BITMAP
00
00
0C
10
10
08
04
04
24
18
00
00
00
ENDCHAR

STARTCHAR 6
ENCODING 54
SWIDTH 666 0
DWIDTH 8 0
BBX 8 13 0 -3
BITMAP
00
00
0C
10
20
38
24
24
24
18
00
00
00
ENDCHAR

STARTCHAR 7
ENCODING 55
SWIDTH 666 0
DWIDTH 8 0
BBX 8 13 0 -3
BITMAP
00
00
1C
24
04
08
08
10
10
10
00
00
00
ENDCHAR

STARTCHAR 8
ENCODING 56
SWIDTH 666 0
DWIDTH 8 0
BBX 8 13 0 -3
BITMAP
00
00
18
24
24
18
24
24
24
18
00
00
00
ENDCHAR

STARTCHAR 9
ENCODING 57
SWIDTH 666 0
DWIDTH 8 0
BBX 8 13 0 -3
BITMAP
00
00
18
24
24
24
1C
04
08
30
00
00
00
ENDCHAR

STARTCHAR :
ENCODING 58
SWIDTH 666 0
DWIDTH 8 0
BBX 8 13 0 -3
BITMAP
00
00
00
00
08
08
00
00
08
08
00
00
00
ENDCHAR

STARTCHAR ;
ENCODING 59
SWIDTH 666 0
DWIDTH 8 0
BBX 8 13 0 -3
BITMAP
00
00
00
00
08
08
00
00
18
08
08
10
00
ENDCHAR

STARTCHAR <
ENCODING 60
SWIDTH 666 0
DWIDTH 8 0
BBX 8 13 0 -3
BITMAP
00
00
04
08
10
20
20
10
08
04
00
00
00
ENDCHAR

STARTCHAR =
ENCODING 61
SWIDTH 666 0
DWIDTH 8 0
BBX 8 13 0 -3
BITMAP
00
00
00
00
00
00
3C
00
3C
00
00
00
00
ENDCHAR

STARTCHAR >
ENCODING 62
SWIDTH 666 0
DWIDTH 8 0
BBX 8 13 0 -3
BITMAP
00
00
20
10
08
04
04
08
10
20
00
00
00
ENDCHAR

STARTCHAR ?
ENCODING 63
SWIDTH 666 0
DWIDTH 8 0
BBX 8 13 0 -3
BITMAP
00
00
18
24
04
08
10
00
10
10
00
00
00
ENDCHAR

STARTCHAR @
ENCODING 64
SWIDTH 666 0
DWIDTH 8 0
BBX 8 13 0 -3
BITMAP
00
00
1E
62
5D
95
95
96
5A
61
1E
00
00
ENDCHAR

STARTCHAR A
ENCODING 65
SWIDTH 666 0
DWIDTH 8 0
BBX 8 13 0 -3
BITMAP
00
00
10
10
28
28
44
7C
82
C7
00
00
00
ENDCHAR

STARTCHAR B
ENCODING 66
SWIDTH 666 0
DWIDTH 8 0
BBX 8 13 0 -3
BITMAP
00
00
FC
42
42
7C
42
42
42
FC
00
00
00
ENDCHAR

STARTCHAR C
ENCODING 67
SWIDTH 666 0
DWIDTH 8 0
BBX 8 13 0 -3
BITMAP
00
00
3A
46
82
80
80
80
42
3C
00
00
00
ENDCHAR

STARTCHAR D
ENCODING 68
SWIDTH 666 0
DWIDTH 8 0
BBX 8 13 0 -3
BITMAP
00
00
FC
42
41
41
41
41
42
FC
00
00
00
ENDCHAR

STARTCHAR E
ENCODING 69
SWIDTH 666 0
DWIDTH 8 0
BBX 8 13 0 -3
BITMAP
00
00
FC
42
48
78
48
40
42
FC
00
00
00
ENDCHAR

STARTCHAR F
ENCODING 70
SWIDTH 666 0
DWIDTH 8 0
BBX 8 13 0 -3
BITMAP
00
00
FC
42
48
78
48
40
40
F0
00
00
00
ENDCHAR

STARTCHAR G
ENCODING 71
SWIDTH 666 0
DWIDTH 8 0
BBX 8 13 0 -3
BITMAP
00
00
3A
46
80
80
87
82
42
3C
00
00
00
ENDCHAR

STARTCHAR H
ENCODING 72
SWIDTH 666 0
DWIDTH 8 0
BBX 8 13 0 -3
BITMAP
00
00
E7
42
42
7E
42
42
42
E7
00
00
00
ENDCHAR

STARTCHAR I
ENCODING 73
SWIDTH 666 0
DWIDTH 8 0
BBX 8 13 0 -3
BITMAP
00
00
38
10
10
10
10
10
10
38
00
00
00
ENDCHAR

STARTCHAR J
ENCODING 74
SWIDTH 666 0
DWIDTH 8 0
BBX 8 13 0 -3
BITMAP
00
00
1C
08
08
08
08
08
28
30
00
00
00
ENDCHAR

STARTCHAR K
ENCODING 75
SWIDTH 666 0
DWIDTH 8 0
BBX 8 13 0 -3
BITMAP
00
00
E6
44
48
70
58
4C
46
E3
00
00
00
ENDCHAR

STARTCHAR L
ENCODING 76
SWIDTH 666 0
DWIDTH 8 0
BBX 8 13 0 -3
BITMAP
00
00
E0
40
40
40
40
40
42
FC
00
00
00
ENDCHAR

STARTCHAR M
ENCODING 77
SWIDTH 666 0
DWIDTH 8 0
BBX 8 13 0 -3
BITMAP
00
00
C3
C2
A6
A6
9A
9A
92
D3
00
00
00
ENDCHAR

STARTCHAR N
ENCODING 78
SWIDTH 666 0
DWIDTH 8 0
BBX 8 13 0 -3
BITMAP
00
00
E7
62
52
52
4A
4A
46
E6
00
00
00
ENDCHAR

STARTCHAR O
ENCODING 79
SWIDTH 666 0
DWIDTH 8 0
BBX 8 13 0 -3
BITMAP
00
00
3C
42
81
81
81
81
42
3C
00
00
00
ENDCHAR

STARTCHAR P
ENCODING 80
SWIDTH 666 0
DWIDTH 8 0
BBX 8 13 0 -3
BITMAP
00
00
7C
22
22
22
3C
20
20
70
00
00
00
ENDCHAR

STARTCHAR Q
ENCODING 81
SWIDTH 666 0
DWIDTH 8 0
BBX 8 13 0 -3
BITMAP
00
00
3C
42
81
81
81
81
42
3C
08
06
00
ENDCHAR

STARTCHAR R
ENCODING 82
SWIDTH 666 0
DWIDTH 8 0
BBX 8 13 0 -3
BITMAP
00
00
F8
44
44
78
50
48
44
E6
00
00
00
ENDCHAR

STARTCHAR S
ENCODING 83
SWIDTH 666 0
DWIDTH 8 0
BBX 8 13 0 -3
BITMAP
00
00
34
4C
40
30
08
44
64
58
00
00
00
ENDCHAR

STARTCHAR T
ENCODING 84
SWIDTH 666 0
DWIDTH 8 0
BBX 8 13 0 -3
BITMAP
00
00
FE
92
10
10
10
10
10
38
00
00
00
ENDCHAR

STARTCHAR U
ENCODING 85
SWIDTH 666 0
DWIDTH 8 0
BBX 8 13 0 -3
BITMAP
00
00
E7
42
42
42
42
42
42
3C
00
00
00
ENDCHAR

STARTCHAR V
ENCODING 86
SWIDTH 666 0
DWIDTH 8 0
BBX 8 13 0 -3
BITMAP
00
00
C7
82
82
44
44
28
28
10
00
00
00
ENDCHAR

STARTCHAR W
ENCODING 87
SWIDTH 666 0
DWIDTH 8 0
BBX 8 13 0 -3
BITMAP
00
00
DB
92
92
5A
5A
5A
24
24
00
00
00
ENDCHAR

STARTCHAR X
ENCODING 88
SWIDTH 666 0
DWIDTH 8 0
BBX 8 13 0 -3
BITMAP
00
00
EE
44
28
10
10
28
44
EE
00
00
00
ENDCHAR

STARTCHAR Y
ENCODING 89
SWIDTH 666 0
DWIDTH 8 0
BBX 8 13 0 -3
BITMAP
00
00
EE
44
28
28
10
10
10
38
00
00
00
ENDCHAR

STARTCHAR Z
ENCODING 90
SWIDTH 666 0
DWIDTH 8 0
BBX 8 13 0 -3
BITMAP
00
00
3E
42
04
08
10
20
42
7C
00
00
00
ENDCHAR

STARTCHAR [
ENCODING 91
SWIDTH 666 0
DWIDTH 8 0
BBX 8 13 0 -3
BITMAP
00
00
1C
10
10
10
10
10
10
10
10
10
1C
ENDCHAR

STARTCHAR \
ENCODING 92
SWIDTH 666 0
DWIDTH 8 0
BBX 8 13 0 -3
BITMAP
00
00
20
20
10
10
08
08
04
04
00
00
00
ENDCHAR

STARTCHAR ]
ENCODING 93
SWIDTH 666 0
DWIDTH 8 0
BBX 8 13 0 -3
BITMAP
00
00
1C
04
04
04
04
04
04
04
04
04
1C
ENDCHAR

STARTCHAR ^
ENCODING 94
SWIDTH 666 0
DWIDTH 8 0
BBX 8 13 0 -3
BITMAP
00
00
00
00
08
1C
2A
08
08
08
00
00
00
ENDCHAR

STARTCHAR _
ENCODING 95
SWIDTH 666 0
DWIDTH 8 0
BBX 8 13 0 -3
BITMAP
00
00
00
00
10
20
7E
20
10
00
00
00
00
ENDCHAR

STARTCHAR `
ENCODING 96
SWIDTH 666 0
DWIDTH 8 0
BBX 8 13 0 -3
BITMAP
00
00
08
10
18
00
00
00
00
00
00
00
00
ENDCHAR

STARTCHAR a
ENCODING 97
SWIDTH 666 0
DWIDTH 8 0
BBX 8 13 0 -3
BITMAP
00
00
00
00
38
04
3C
44
44
3A
00
00
00
ENDCHAR

STARTCHAR b
ENCODING 98
SWIDTH 666 0
DWIDTH 8 0
BBX 8 13 0 -3
BITMAP
00
00
60
20
2C
32
22
22
22
1C
00
00
00
ENDCHAR

STARTCHAR c
ENCODING 99
SWIDTH 666 0
DWIDTH 8 0
BBX 8 13 0 -3
BITMAP
00
00
00
00
38
44
40
40
44
38
00
00
00
ENDCHAR

STARTCHAR d
ENCODING 100
SWIDTH 666 0
DWIDTH 8 0
BBX 8 13 0 -3
BITMAP
00
00
0C
04
34
4C
44
44
44
3A
00
00
00
ENDCHAR

STARTCHAR e
ENCODING 101
SWIDTH 666 0
DWIDTH 8 0
BBX 8 13 0 -3
BITMAP
00
00
00
00
38
44
7C
40
44
38
00
00
00
ENDCHAR

STARTCHAR f
ENCODING 102
SWIDTH 666 0
DWIDTH 8 0
BBX 8 13 0 -3
BITMAP
00
00
0C
12
38
10
10
10
10
38
00
00
00
ENDCHAR

STARTCHAR g
ENCODING 103
SWIDTH 666 0
DWIDTH 8 0
BBX 8 13 0 -3
BITMAP
00
00
00
00
1A
24
24
18
20
1C
22
3C
00
ENDCHAR

STARTCHAR h
ENCODING 104
SWIDTH 666 0
DWIDTH 8 0
BBX 8 13 0 -3
BITMAP
00
00
C0
40
58
64
44
44
44
EE
00
00
00
ENDCHAR

STARTCHAR i
ENCODING 105
SWIDTH 666 0
DWIDTH 8 0
BBX 8 13 0 -3
BITMAP
00
00
10
00
30
10
10
10
10
38
00
00
00
ENDCHAR

STARTCHAR j
ENCODING 106
SWIDTH 666 0
DWIDTH 8 0
BBX 8 13 0 -3
BITMAP
00
00
08
00
18
08
08
08
08
08
28
30
00
ENDCHAR

STARTCHAR k
ENCODING 107
SWIDTH 666 0
DWIDTH 8 0
BBX 8 13 0 -3
BITMAP
00
00
60
20
26
28
30
28
24
76
00
00
00
ENDCHAR

STARTCHAR l
ENCODING 108
SWIDTH 666 0
DWIDTH 8 0
BBX 8 13 0 -3
BITMAP
00
00
30
10
10
10
10
10
10
38
00
00
00
ENDCHAR

STARTCHAR m
ENCODING 109
SWIDTH 666 0
DWIDTH 8 0
BBX 8 13 0 -3
BITMAP
00
00
00
00
EC
92
92
92
92
BB
00
00
00
ENDCHAR

STARTCHAR n
ENCODING 110
SWIDTH 666 0
DWIDTH 8 0
BBX 8 13 0 -3
BITMAP
00
00
00
00
D8
64
44
44
44
EE
00
00
00
ENDCHAR

STARTCHAR o
ENCODING 111
SWIDTH 666 0
DWIDTH 8 0
BBX 8 13 0 -3
BITMAP
00
00
00
00
38
44
44
44
44
38
00
00
00
ENDCHAR

STARTCHAR p
ENCODING 112
SWIDTH 666 0
DWIDTH 8 0
BBX 8 13 0 -3
BITMAP
00
00
00
00
6C
32
22
22
32
2C
20
70
00
ENDCHAR

STARTCHAR q
ENCODING 113
SWIDTH 666 0
DWIDTH 8 0
BBX 8 13 0 -3
BITMAP
00
00
00
00
34
4C
44
44
4C
34
04
0E
00
ENDCHAR

STARTCHAR r
ENCODING 114
SWIDTH 666 0
DWIDTH 8 0
BBX 8 13 0 -3
BITMAP
00
00
00
00
3C
14
10
10
10
38
00
00
00
ENDCHAR

STARTCHAR s
ENCODING 115
SWIDTH 666 0
DWIDTH 8 0
BBX 8 13 0 -3
BITMAP
00
00
00
00
1C
20
18
04
24
38
00
00
00
ENDCHAR

STARTCHAR t
ENCODING 116
SWIDTH 666 0
DWIDTH 8 0
BBX 8 13 0 -3
BITMAP
00
00
00
10
38
10
10
10
14
08
00
00
00
ENDCHAR

STARTCHAR u
ENCODING 117
SWIDTH 666 0
DWIDTH 8 0
BBX 8 13 0 -3
BITMAP
00
00
00
00
CC
44
44
44
44
3A
00
00
00
ENDCHAR

STARTCHAR v
ENCODING 118
SWIDTH 666 0
DWIDTH 8 0
BBX 8 13 0 -3
BITMAP
00
00
00
00
EE
44
44
28
28
10
00
00
00
ENDCHAR

STARTCHAR w
ENCODING 119
SWIDTH 666 0
DWIDTH 8 0
BBX 8 13 0 -3
BITMAP
00
00
00
00
D7
92
92
54
6C
44
00
00
00
ENDCHAR

STARTCHAR x
ENCODING 120
SWIDTH 666 0
DWIDTH 8 0
BBX 8 13 0 -3
BITMAP
00
00
00
00
6C
28
10
10
28
6C
00
00
00
ENDCHAR

STARTCHAR y
ENCODING 121
SWIDTH 666 0
DWIDTH 8 0
BBX 8 13 0 -3
BITMAP
00
00
00
00
EE
44
28
28
10
10
A0
60
00
ENDCHAR

STARTCHAR z
ENCODING 122
SWIDTH 666 0
DWIDTH 8 0
BBX 8 13 0 -3
BITMAP
00
00
00
00
3E
44
08
10
22
7C
00
00
00
ENDCHAR

STARTCHAR {
ENCODING 123
SWIDTH 666 0
DWIDTH 8 0
BBX 8 13 0 -3
BITMAP
00
00
06
08
08
08
08
30
08
08
08
08
06
ENDCHAR

STARTCHAR |
ENCODING 124
SWIDTH 666 0
DWIDTH 8 0
BBX 8 13 0 -3
BITMAP
00
00
08
08
08
08
08
08
08
08
08
08
00
ENDCHAR

STARTCHAR }
ENCODING 125
SWIDTH 666 0
DWIDTH 8 0
BBX 8 13 0 -3
BITMAP
00
00
30
08
08
08
08
06
08
08
08
08
30
ENDCHAR

STARTCHAR ~
ENCODING 126
SWIDTH 666 0
DWIDTH 8 0
BBX 8 13 0 -3
BITMAP
00
00
00
00
00
32
4C
00
00
00
00
00
00
ENDCHAR
ENDFONT
